<svg xmlns="http://www.w3.org/2000/svg" width="48" height="48" viewBox="0 0 24 24" fill="currentColor" stroke="currentColor" stroke-width="0" stroke-linecap="square" stroke-linejoin="square">
    <path d="m9.7459 15.7641h-.9979l.0499-1.4719-.0249-.1497v-1.9709l0-.3493q0-.7484-.3742-1.0977-.3742-.3493-1.1975-.3493-.6486 0-1.1975.1996-.5489.1996-.973.4491l.0998-.8482q.2245-.1497.5738-.2744.3243-.1497.7484-.2245.4241-.0998.9231-.0998.6486 0 1.1227.1497.4491.1497.7484.4491.2744.2994.4241.7235.1247.4241.1247.948v3.9418m-3.1434.0998q-.8981 0-1.3971-.4491-.474-.4241-.474-1.2474v-.1746q0-.8482.5239-1.2474.5239-.4241 1.6466-.5738l1.921-.2744.0499.7484-1.8462.2744q-.6985.0998-.9979.3493-.2994.2495-.2994.6985v.0998q0 .474.2994.7484.2994.2495.8981.2495.5239 0 .8981-.1746.3742-.1746.5988-.474.2245-.2994.3243-.6736l.1497.6985h-.1996q-.0748.3992-.3243.7484-.2495.3493-.6736.5489-.4241.1996-1.0977.1996zm9.7297-.1247h-.9979v-3.7921q0-.499-.1247-.8482-.1247-.3493-.4491-.5489-.2994-.1996-.8233-.1996-.474 0-.8233.1746-.3493.1746-.5738.499-.2245.2994-.2994.6985l-.1746-.7235h.2245q.0998-.4241.3493-.7484t.6736-.5489q.4241-.1996 1.0229-.1996.7235 0 1.1726.2744.4491.2744.6486.7983.1996.5239.1996 1.2723v3.8919m-4.0665 0h-1.0478v-6.0873h1.0229l-.0499 1.4719.0499.0499v4.5655zm7.5343.1247q-.7235 0-1.2723-.1497-.5489-.1497-.8981-.3493l-.0998-.948q.4491.2495.9979.3992.5489.1746 1.2474.1746.6985 0 1.0728-.2245.3493-.2245.3493-.6736v-.0748q0-.2744-.1247-.474-.1247-.1996-.474-.3243-.3493-.1497-.9979-.2744-.7734-.1746-1.2225-.3992-.4491-.2245-.6237-.5738-.1996-.3243-.1996-.8233v-.0249q0-.7983.5489-1.1975.5489-.4241 1.6715-.4241.7235 0 1.2474.1746.5239.1497.8732.3493l.0998.8482q-.3992-.2495-.9231-.3992-.5239-.1497-1.1726-.1497-.474 0-.7734.0998-.2994.0998-.4241.2744-.1247.1746-.1247.4241v.0499q0 .2744.1247.474.1247.1996.474.3243.3493.1497.948.2744.7734.1497 1.2474.3742.4491.2245.6486.5489.1996.3243.1996.8482v.0998q0 .8482-.5988 1.2973-.5988.4491-1.7713.4491zm4.0665-.0249q-.3243 0-.474-.1746-.1497-.1746-.1497-.499v-.0748q0-.3243.1497-.499.1497-.1746.474-.1746.3243 0 .474.1746.1497.1746.1497.499v.0748q0 .3243-.1497.499-.1497.1746-.474.1746z"/>
</svg>
