<svg id="svg-github" class="icon-display icon-color" xmlns="http://www.w3.org/2000/svg" viewBox="0 0 24 24" fill="currentColor" stroke="currentColor" stroke-width="1" stroke-linecap="round" stroke-linejoin="round">
    <path d="M12.1404 1.5C6.2565 1.5 1.5 6.2916 1.5 12.2195c0 4.7385 3.0477 8.7495 7.2756 10.1691.5286.1067.7222-.2307.7222-.5144 0-.2485-.0174-1.1003-.0174-1.9879-2.9599.639-3.5763-1.2778-3.5763-1.2778-.4757-1.2423-1.1805-1.5616-1.1805-1.5616-.9688-.6567.0706-.6567.0706-.6567 1.0746.071 1.6385 1.1003 1.6385 1.1003.9511 1.6326 2.4838 1.1713 3.1004.8873.088-.6922.37-1.1713.6695-1.4375-2.3607-.2485-4.8445-1.1713-4.8445-5.2888 0-1.1713.4225-2.1296 1.092-2.875-.1056-.2662-.4757-1.3667.1059-2.8397 0 0 .8984-.284 2.9242 1.1003a10.2301 10.2301 90 012.6602-.355c.8984 0 1.8143.1244 2.66.355 2.026-1.3843 2.9244-1.1003 2.9244-1.1003.5815 1.473.2113 2.5735.1056 2.8397.6872.7453 1.0923 1.7036 1.0923 2.875 0 4.1175-2.4838 5.0225-4.8622 5.2888.3877.3372.7222.976.7222 1.9876 0 1.4375-.0174 2.5912-.0174 2.946 0 .284.1938.6214.7222.5149 4.2279-1.4201 7.2756-5.4308 7.2756-10.1693C22.7806 6.2916 18.0066 1.5 12.1404 1.5z"></path>
</svg>
