<svg width="48" height="48" class="icon-display icon-color" xmlns="http://www.w3.org/2000/svg" viewBox="0 0 24 24" fill="none" stroke="currentColor" stroke-width="2" stroke-linecap="round" stroke-linejoin="round">
    <path d="M20 9H15V4"/>
    <path d="M17 21H19C19.5304 21 20.0391 20.7893 20.4142 20.4142C20.7893 20.0391 21 19.5304 21 19"/>
    <path d="M21 12V15"/>
    <path d="M20 4L15 9"/>
    <path d="M3 7V5C3 4.46957 3.21071 3.96086 3.58579 3.58579C3.96086 3.21071 4.46957 3 5 3"/>
    <path d="M5 21L9.144 16.856C9.25637 16.7435 9.38981 16.6543 9.53669 16.5934C9.68357 16.5325 9.84101 16.5012 10 16.5012C10.159 16.5012 10.3164 16.5325 10.4633 16.5934C10.6102 16.6543 10.7436 16.7435 10.856 16.856L13 19"/>
    <path d="M9 3H12"/>
    <path d="M12 11H4C3.44772 11 3 11.4477 3 12V20C3 20.5523 3.44772 21 4 21H12C12.5523 21 13 20.5523 13 20V12C13 11.4477 12.5523 11 12 11Z"/>
</svg>
