<svg id="svg-log" class="icon-display icon-color" fill="none" stroke="currentColor" viewBox="0 0 24 24" xmlns="http://www.w3.org/2000/svg">
    <path stroke-linecap="round" stroke-linejoin="round" stroke-width="2" d="M15 12h-5"></path>
    <path stroke-linecap="round" stroke-linejoin="round" stroke-width="2" d="M15 8h-5"></path>
    <path stroke-linecap="round" stroke-linejoin="round" stroke-width="2" d="M19 17V5a2 2 0 0 0-2-2H4"></path>
    <path stroke-linecap="round" stroke-linejoin="round" stroke-width="2" d="M8 21h12a2 2 0 0 0 2-2v-1a1 1 0 0 0-1-1H11a1 1 0 0 0-1 1v1a2 2 0 1 1-4 0V5a2 2 0 1 0-4 0v2a1 1 0 0 0 1 1h3"></path>
</svg>
