<svg xmlns="http://www.w3.org/2000/svg" width="250" height="217" viewBox="0 0 250 217">
  <path d="m246.3 60.24c-0.16-13.13-8.87-23.82-22.44-23.73-6.16 0.04-9.67 1.86-12.21 3.27-21.07-23.39-50.65-36.18-87.18-36.18h-0.52c-35.62 0-63.53 13.11-81.8 34.49-0.9 1.06-1.8 2.1-2.67 3.17-3.2-2.06-6.53-4.05-14.48-4.46-13.32-0.7-21.26 11.16-21.27 23.11-0.01 8.55 3.48 15.8 9.09 20.18-5.49 13.17-7.87 27.19-6.88 42.32 3.13 49.45 45.2 89.37 117.9 89.99h0.55c69.09-0.34 118.4-38.97 119.3-92.13-0.27-14.45-2.84-26.85-6.89-39.01 5.98-5.08 9.6-11.25 9.5-21.02z" fill="#21456B"/>
  <path d="m239.9 60.37c-0.12-10.14-7.58-17.56-16.32-17.4-6.38 0.12-8.83 2.63-10.83 3.81-17.86-23.66-47.53-37.82-88.33-37.82h-0.43c-39.87 0-67.97 16.93-85.6 40.15-2.1-1.7-4.57-5.41-13.66-6.03-9.75-0.71-15.49 8.58-15.5 17.85-0.01 8.38 4.73 14.88 10.28 17.85-5.88 13.21-8.58 27.91-7.83 42.87 2.24 45.77 40.21 85.19 112.1 85.19h0.68c65.26-0.33 113.5-36.83 113.3-87.1-0.05-14.64-2.96-27.87-6.73-39.31 6.21-4.67 8.92-11.16 8.83-20.06z" fill="#A9B6C1"/>
  <path d="m127.5 17.01c33.87 0 63.05 11.14 82.41 30.78-18.37-21.56-47.73-31.05-82-30.78h-0.41z" fill="#A9B6C1"/>
  <path d="m127.5 17.01c-59.9 0-105.4 44.69-110.1 99.94-1.07 13.25 0.79 25.18 4.64 35.93 6.92 11.04 24.56 32.73 75.94 38.42 8.87 1.01 14.04 0.9 19.31 0.84 67.35-0.75 112.8-36.48 113.4-85.33-0.35-17.59-5.56-32.66-11.88-46.6-0.72-1.56 0.96-8.73 8.85-10.12 5.42-0.93 11.38 1.87 13.04 7.42-2.57-11.63-10.34-14.59-16.68-14.22-5.73 0.35-8.24 2.66-10.3 4.23-19.35-19.69-48.19-30.51-86.25-30.51z" fill="#ABB6C0"/>
  <path d="m29.92 50.27c-11.11-4.17-18.51 0.9-20.18 12.05-0.15-9.08 6.11-19.64 17.05-18.8 6.69 0.53 8.92 2.85 11.1 4.42l-1.5 2.95c-0.57 0.49-2.46 0.47-6.47-0.62z" fill="#8A97A1"/>
  <path d="m126.5 86.72c-10.89 0-21.67 2.49-21.61 10.68 0.05 7.81 8.33 14.11 18.04 20.25v6.16c0 9.22-10.06 17.07-21.09 17.07-6.95 0-11.39-2.73-14.37-6.69-1.32-1.85-5.3-0.92-5.03 1.97 0.33 3.57 8.48 10.62 19.38 10.46 11.94-0.17 20.92-6.68 24.59-13.7 3.92 7.7 11.76 13.5 23.38 13.5 11.13 0 18.42-7.48 19.69-9.83 1.35-2.64-2.54-5.57-4.69-2.6-3.1 4.29-7.37 6.92-15.02 6.87-9.93-0.08-20.75-7.98-20.75-17.59v-5.84c8.13-5.55 18.67-12.49 18.75-20.12 0.07-8.2-11.94-10.59-21.27-10.59z" fill="#1D4670"/>
  <path d="m68.18 77.15c-7.41 1.46-11.52 9.1-11.39 14.64 0.18 6.27 4.3 10.88 10.5 10.57 6.85-0.34 12.83-6.99 11.42-15.57-0.99-5.88-4.75-10.08-10.53-9.64z" fill="#1D4670"/>
  <path d="m183.3 77.11c-6.97 0.25-10.4 7.06-9.81 13.06 0.87 8.42 7.19 12.99 12.99 12.41 6.86-0.69 9.4-6.96 8.61-12.34-1.07-7-6.74-13.31-11.79-13.13z" fill="#1D4670"/>
  <path d="m214.5 45.9c2.25 3.68 5.28 6.88 3.57 9.42-1.35 2.24-3.91 0.79-4.89-1.47-1.98-3.98-4.79-7.96-6.6-10.02" fill="#21456B"/>
  <path d="m35.52 42.54c-2.61 3.24-6.46 8.33-6.46 10.62 0 2.02 2.42 3.6 4.02 2.82 2.2-1.08 3.9-6.83 8.88-12.21" fill="#21456B"/>
</svg>